<mxfile host="Electron" modified="2025-05-10T00:01:35.924Z" agent="Mozilla/5.0 (Windows NT 10.0; Win64; x64) AppleWebKit/537.36 (KHTML, like Gecko) draw.io/22.1.18 Chrome/120.0.6099.199 Electron/28.1.2 Safari/537.36" etag="-3CRm4mW3zmGzTiGYBn8" version="22.1.18" type="device">
  <diagram id="wFE0QG_FPsp0jaGvCLVb" name="Page-1">
    <mxGraphModel dx="1309" dy="973" grid="0" gridSize="10" guides="1" tooltips="1" connect="1" arrows="1" fold="1" page="0" pageScale="1" pageWidth="250" pageHeight="200" background="none" math="0" shadow="0">
      <root>
        <mxCell id="0" />
        <mxCell id="1" parent="0" />
        <mxCell id="_5mSTuPxr-ZiKRkBDSY7-1" value="" style="swimlane;fontStyle=2;childLayout=stackLayout;horizontal=1;startSize=28;horizontalStack=1;resizeParent=1;resizeParentMax=0;resizeLast=0;collapsible=0;marginBottom=0;swimlaneFillColor=none;fontFamily=Permanent Marker;fontSize=16;points=[];verticalAlign=top;stackBorder=0;resizable=1;strokeWidth=2;disableMultiStroke=1;labelBackgroundColor=none;flipH=0;aspect=fixed;sketch=1;curveFitting=1;jiggle=2;rounded=0;fillColor=#FAE5C7;strokeColor=#0F8B8D;fontColor=#143642;" parent="1" vertex="1">
          <mxGeometry x="45" y="250" width="1160" height="320" as="geometry" />
        </mxCell>
        <object label="TO DO" status="New" id="2K2H5he0DDkb4sWrrgm0-7">
          <mxCell style="swimlane;strokeWidth=2;fontFamily=Permanent Marker;html=0;startSize=1;verticalAlign=bottom;spacingBottom=5;points=[];childLayout=stackLayout;stackBorder=20;stackSpacing=20;resizeLast=0;resizeParent=1;horizontalStack=0;collapsible=0;fillStyle=solid;swimlaneLine=1;glass=0;shadow=0;fontSize=15;labelBackgroundColor=none;sketch=1;curveFitting=1;jiggle=2;rounded=0;fillColor=#FAE5C7;strokeColor=#0F8B8D;fontColor=#143642;" vertex="1" parent="_5mSTuPxr-ZiKRkBDSY7-1">
            <mxGeometry y="28" width="290" height="292" as="geometry" />
          </mxCell>
        </object>
        <object label="Разбор инженерных коммуникаций" placeholders="1" id="2K2H5he0DDkb4sWrrgm0-17">
          <mxCell style="whiteSpace=wrap;html=1;strokeWidth=2;fontStyle=1;spacingTop=0;rounded=0;arcSize=9;points=[];fontFamily=Permanent Marker;hachureGap=8;fillWeight=1;glass=0;imageAspect=1;recursiveResize=1;fontSize=15;labelBackgroundColor=none;sketch=1;curveFitting=1;jiggle=2;fillColor=#FAE5C7;strokeColor=#0F8B8D;fontColor=#143642;" vertex="1" parent="2K2H5he0DDkb4sWrrgm0-7">
            <mxGeometry x="20" y="21" width="250" height="50" as="geometry" />
          </mxCell>
        </object>
        <object label="&lt;font style=&quot;font-size: 15px;&quot;&gt;САНУЗЕЛ:&lt;br style=&quot;font-size: 15px;&quot;&gt;Демонтаж старой отделки пола, стен, потолка&lt;br style=&quot;font-size: 15px;&quot;&gt;&lt;/font&gt;" placeholders="1" id="2K2H5he0DDkb4sWrrgm0-22">
          <mxCell style="whiteSpace=wrap;html=1;strokeWidth=2;fontStyle=1;spacingTop=0;rounded=0;arcSize=9;points=[];fontFamily=Permanent Marker;hachureGap=8;fillWeight=1;glass=0;imageAspect=1;recursiveResize=1;fontSize=15;labelBackgroundColor=none;sketch=1;curveFitting=1;jiggle=2;fillColor=#FAE5C7;strokeColor=#0F8B8D;fontColor=#143642;" vertex="1" parent="2K2H5he0DDkb4sWrrgm0-7">
            <mxGeometry x="20" y="91" width="250" height="69" as="geometry" />
          </mxCell>
        </object>
        <object label="IN PROGRESS" status="New" id="_5mSTuPxr-ZiKRkBDSY7-2">
          <mxCell style="swimlane;strokeWidth=2;fontFamily=Permanent Marker;html=0;startSize=1;verticalAlign=bottom;spacingBottom=5;points=[];childLayout=stackLayout;stackBorder=20;stackSpacing=20;resizeLast=0;resizeParent=1;horizontalStack=0;collapsible=0;fillStyle=solid;rounded=0;fontSize=15;labelBackgroundColor=none;sketch=1;curveFitting=1;jiggle=2;fillColor=#FAE5C7;strokeColor=#0F8B8D;fontColor=#143642;" parent="_5mSTuPxr-ZiKRkBDSY7-1" vertex="1">
            <mxGeometry x="290" y="28" width="290" height="292" as="geometry" />
          </mxCell>
        </object>
        <object label="Реконструкция/замена дверных и оконных конструкций" placeholders="1" id="2K2H5he0DDkb4sWrrgm0-18">
          <mxCell style="whiteSpace=wrap;html=1;strokeWidth=2;fontStyle=1;spacingTop=0;rounded=0;arcSize=9;points=[];fontFamily=Permanent Marker;hachureGap=8;fillWeight=1;glass=0;imageAspect=1;recursiveResize=1;fontSize=15;labelBackgroundColor=none;sketch=1;curveFitting=1;jiggle=2;fillColor=#FAE5C7;strokeColor=#0F8B8D;fontColor=#143642;" vertex="1" parent="_5mSTuPxr-ZiKRkBDSY7-2">
            <mxGeometry x="20" y="21" width="250" height="59" as="geometry" />
          </mxCell>
        </object>
        <object label="&lt;font style=&quot;font-size: 15px;&quot;&gt;КУХНЯ:&lt;br style=&quot;font-size: 15px;&quot;&gt;Демонтаж старой отделки пола, стен, потолка&lt;br style=&quot;font-size: 15px;&quot;&gt;&lt;/font&gt;" placeholders="1" id="2K2H5he0DDkb4sWrrgm0-27">
          <mxCell style="whiteSpace=wrap;html=1;strokeWidth=2;fontStyle=1;spacingTop=0;rounded=0;arcSize=9;points=[];fontFamily=Permanent Marker;hachureGap=8;fillWeight=1;glass=0;imageAspect=1;recursiveResize=1;fontSize=15;fillStyle=auto;shadow=0;labelBackgroundColor=none;sketch=1;curveFitting=1;jiggle=2;fillColor=#FAE5C7;strokeColor=#0F8B8D;fontColor=#143642;" vertex="1" parent="_5mSTuPxr-ZiKRkBDSY7-2">
            <mxGeometry x="20" y="100" width="250" height="70" as="geometry" />
          </mxCell>
        </object>
        <object label="TO TEST" status="In progress" id="_5mSTuPxr-ZiKRkBDSY7-6">
          <mxCell style="swimlane;strokeWidth=2;fontFamily=Permanent Marker;html=0;startSize=1;verticalAlign=bottom;spacingBottom=5;points=[];childLayout=stackLayout;stackBorder=20;stackSpacing=20;resizeLast=0;resizeParent=1;horizontalStack=0;collapsible=0;fillStyle=solid;fontSize=15;labelBackgroundColor=none;sketch=1;curveFitting=1;jiggle=2;rounded=0;fillColor=#FAE5C7;strokeColor=#0F8B8D;fontColor=#143642;" parent="_5mSTuPxr-ZiKRkBDSY7-1" vertex="1">
            <mxGeometry x="580" y="28" width="290" height="292" as="geometry" />
          </mxCell>
        </object>
        <object label="&lt;font style=&quot;font-size: 15px;&quot;&gt;КОМНАТА-1:&lt;br style=&quot;font-size: 15px;&quot;&gt;Демонтаж старой отделки пола, стен, потолка&lt;br style=&quot;font-size: 15px;&quot;&gt;&lt;/font&gt;" placeholders="1" id="2K2H5he0DDkb4sWrrgm0-29">
          <mxCell style="whiteSpace=wrap;html=1;strokeWidth=2;fontStyle=1;spacingTop=0;rounded=0;arcSize=9;points=[];fontFamily=Permanent Marker;hachureGap=8;fillWeight=1;glass=0;imageAspect=1;recursiveResize=1;fontSize=15;fillStyle=auto;shadow=0;labelBackgroundColor=none;sketch=1;curveFitting=1;jiggle=2;fillColor=#FAE5C7;strokeColor=#0F8B8D;fontColor=#143642;" vertex="1" parent="_5mSTuPxr-ZiKRkBDSY7-6">
            <mxGeometry x="20" y="21" width="250" height="70" as="geometry" />
          </mxCell>
        </object>
        <object label="&lt;font style=&quot;font-size: 15px;&quot;&gt;КОМНАТА-2:&lt;br style=&quot;font-size: 15px;&quot;&gt;Демонтаж старой отделки пола, стен, потолка&lt;br style=&quot;font-size: 15px;&quot;&gt;&lt;/font&gt;" placeholders="1" id="2K2H5he0DDkb4sWrrgm0-28">
          <mxCell style="whiteSpace=wrap;html=1;strokeWidth=2;fontStyle=1;spacingTop=0;rounded=0;arcSize=9;points=[];fontFamily=Permanent Marker;hachureGap=8;fillWeight=1;glass=0;imageAspect=1;recursiveResize=1;fontSize=15;fillStyle=auto;shadow=0;labelBackgroundColor=none;sketch=1;curveFitting=1;jiggle=2;fillColor=#FAE5C7;strokeColor=#0F8B8D;fontColor=#143642;" vertex="1" parent="_5mSTuPxr-ZiKRkBDSY7-6">
            <mxGeometry x="20" y="111" width="250" height="70" as="geometry" />
          </mxCell>
        </object>
        <object label="&lt;font style=&quot;font-size: 15px;&quot;&gt;КОРИДОР:&lt;br style=&quot;font-size: 15px;&quot;&gt;Демонтаж старой отделки пола, стен, потолка&lt;br style=&quot;font-size: 15px;&quot;&gt;&lt;/font&gt;" placeholders="1" id="2K2H5he0DDkb4sWrrgm0-25">
          <mxCell style="whiteSpace=wrap;html=1;strokeWidth=2;fontStyle=1;spacingTop=0;rounded=0;arcSize=9;points=[];fontFamily=Permanent Marker;hachureGap=8;fillWeight=1;glass=0;imageAspect=1;recursiveResize=1;fontSize=15;labelBackgroundColor=none;sketch=1;curveFitting=1;jiggle=2;fillColor=#FAE5C7;strokeColor=#0F8B8D;fontColor=#143642;" vertex="1" parent="_5mSTuPxr-ZiKRkBDSY7-6">
            <mxGeometry x="20" y="201" width="250" height="59" as="geometry" />
          </mxCell>
        </object>
        <object label="DONE" status="Completed" id="_5mSTuPxr-ZiKRkBDSY7-9">
          <mxCell style="swimlane;strokeWidth=2;fontFamily=Permanent Marker;html=0;startSize=1;verticalAlign=bottom;spacingBottom=5;points=[];childLayout=stackLayout;stackBorder=20;stackSpacing=20;resizeLast=0;resizeParent=1;horizontalStack=0;collapsible=0;fillStyle=solid;fontSize=15;labelBackgroundColor=none;sketch=1;curveFitting=1;jiggle=2;rounded=0;fillColor=#FAE5C7;strokeColor=#0F8B8D;fontColor=#143642;" parent="_5mSTuPxr-ZiKRkBDSY7-1" vertex="1">
            <mxGeometry x="870" y="28" width="290" height="292" as="geometry" />
          </mxCell>
        </object>
        <object label="&lt;font style=&quot;font-size: 15px;&quot;&gt;Освобождение квартиры от старой мебели&lt;br style=&quot;font-size: 15px;&quot;&gt;&lt;/font&gt;&lt;font style=&quot;font-weight: normal; font-style: italic; font-size: 15px;&quot;&gt;(мебель, которая будет реставрироваться, укрыть защитным материалом)&lt;/font&gt;" placeholders="1" id="2K2H5he0DDkb4sWrrgm0-26">
          <mxCell style="whiteSpace=wrap;html=1;strokeWidth=2;fontStyle=1;spacingTop=0;rounded=0;arcSize=9;points=[];fontFamily=Permanent Marker;hachureGap=8;fillWeight=1;glass=0;imageAspect=1;recursiveResize=1;fontSize=15;fillStyle=auto;shadow=0;labelBackgroundColor=none;sketch=1;curveFitting=1;jiggle=2;fillColor=#FAE5C7;strokeColor=#0F8B8D;fontColor=#143642;" vertex="1" parent="_5mSTuPxr-ZiKRkBDSY7-9">
            <mxGeometry x="20" y="21" width="250" height="109" as="geometry" />
          </mxCell>
        </object>
        <object label="Приобретение необходимых инструментов и строительных материалов, необходимых на данном этапе работ" placeholders="1" id="2K2H5he0DDkb4sWrrgm0-33">
          <mxCell style="whiteSpace=wrap;html=1;strokeWidth=2;fontStyle=1;spacingTop=0;rounded=0;arcSize=9;points=[];fontFamily=Permanent Marker;hachureGap=8;fillWeight=1;glass=0;imageAspect=1;recursiveResize=1;fontSize=15;fillStyle=auto;shadow=0;labelBackgroundColor=none;sketch=1;curveFitting=1;jiggle=2;fillColor=#FAE5C7;strokeColor=#0F8B8D;fontColor=#143642;" vertex="1" parent="_5mSTuPxr-ZiKRkBDSY7-9">
            <mxGeometry x="20" y="150" width="250" height="80" as="geometry" />
          </mxCell>
        </object>
      </root>
    </mxGraphModel>
  </diagram>
</mxfile>
